<?xml version="1.0" encoding="utf-8"?>
<!-- Generator: Adobe Illustrator 22.1.0, SVG Export Plug-In . SVG Version: 6.00 Build 0)  -->
<svg version="1.1" id="Layer_1" xmlns="http://www.w3.org/2000/svg" xmlns:xlink="http://www.w3.org/1999/xlink" x="0px" y="0px"
	 viewBox="0 0 603.8 66.8" style="enable-background:new 0 0 603.8 66.8;" xml:space="preserve">
<style type="text/css">
	.st0{fill:#0066A1;}
	.st1{fill:#DE3919;}
	.st2{fill:#4E4E4E;}
	.st3{fill:none;}
</style>
<g>
	<g>
		<path class="st0" d="M142,15.7h-4.3v11.1c-1.7-1.5-3.8-2.5-7.5-2.5c-6.1,0-12.2,4.1-12.2,15.3c0,3.5,0.7,6.4,1.8,8.6
			c-0.9,0.2-1.8,0.4-2.7,0.4c-2.5,0-3.6-0.8-3.6-3.6v-7.4h0V20.1c0-3.8-0.4-4.5-3.1-4.5h-4.3v21.9V45v0.9c0,6.4,3.1,8,7.2,8
			c3.2,0,6.4-1.1,9-2.6c1.9,1.7,4.4,2.6,7.1,2.6c3.7,0,6.5-1.7,8.4-3.8c0.3,2.7,1,3.1,2.3,3.1h5V20.1
			C145.1,16.4,144.7,15.7,142,15.7 M137.7,45.7c-2,1.7-3.6,2.6-5.9,2.6c-3.8,0-5.7-2.6-5.7-9.2c0-7.1,3.3-8.8,6.6-8.8
			c2.2,0,3.7,0.6,5,1.5V45.7z"/>
		<path class="st0" d="M94,28.2c-0.3-2.8-1.1-3.3-2.4-3.3h-5v28.3h7.5V32.7c1.5-0.8,4.3-2,8.2-2h1.4v-6.3c-0.5-0.2-1.1-0.3-1.7-0.3
			C98.4,24.2,95.8,26.3,94,28.2"/>
		<path class="st0" d="M167,22.8c2.4,0,4.3-1.9,4.3-4.2c0-2.3-1.9-4.2-4.3-4.2c-2.4,0-4.4,1.9-4.4,4.2C162.7,21,164.6,22.8,167,22.8
			"/>
		<path class="st0" d="M69.7,53.9L69.7,53.9c8.1,0,14.8-6.6,14.8-14.8c0-6.1-3.7-11.4-9.1-13.7c-1.8-0.8-3.7-1.2-5.8-1.2
			c-0.5,0-1,0-1.5,0.1c-1.8,2.5-2.9,5.5-2.9,8.7c0,6.1,3.7,11.4,9.1,13.7c-1.3,0.9-2.9,1.5-4.7,1.5c-4.7,0-8.6-4.1-8.6-9.1
			c0-2.2,0.7-4.2,1.9-5.7c0-2.3,0.8-6.5,2.1-8.4c-6,1.9-10.2,7.6-10.2,14.1C54.9,47.3,61.6,53.9,69.7,53.9 M71.6,33
			c0-1,0.1-1.9,0.4-2.8c3.6,1.1,6.3,4.6,6.3,8.8c0,1-0.1,1.9-0.4,2.8C74.2,40.8,71.6,37.2,71.6,33"/>
		<path class="st0" d="M234.2,38.5c0-9.4-4.5-14-12.9-14c-7.9,0-13.9,5.7-13.9,14.8c0,3.5,0.8,6.4,2.2,8.7c-1,0.3-2.1,0.5-3.2,0.5
			c-2.1,0-3.3-0.6-3.6-2.6V32.2c0-6.4-3.5-8-7.7-8c-3.8,0-7.2,1.6-9.9,3.6c-0.3-2.5-1.1-2.9-2.4-2.9H178v23
			c-1.1,0.4-2.3,0.7-3.6,0.7c-2.4,0-3.6-1.7-3.6-4.4v-14c0-4.4-0.4-5.2-3-5.2h-4.4v11.9V45v0.1v2.8c-1.1,0.4-2.4,0.7-3.7,0.7
			c-2.4,0-3.6-0.8-3.6-3.6l0-24.8c0-3.8-0.4-4.5-3.1-4.5h-4.3v21.9v7.3v1c0,6.4,3.1,8,7.2,8c3.3,0,6.7-1.2,9.3-2.7
			c1.3,1.4,3.2,2.8,5.4,2.8c2.5,0,5.1-0.7,7.4-1.7v1.1h7.5V32c1.8-0.7,4-1.3,6.5-1.3c2.5,0,3.5,0.8,3.5,3.6v3.3h0v8.3
			c0,6.4,3.1,8,7.2,8c3.4,0,7-1.2,9.6-2.9c2.4,1.9,5.6,2.9,9.7,2.9c5.7,0,8.9-1.5,11.2-2.8v-5.2h-2.4c-1.8,1.4-4.3,2.4-7.6,2.4
			c-4.4,0-7.1-1.6-7.5-7.3h18.5C234.1,40.7,234.2,39.5,234.2,38.5 M215.7,36.2c0.6-5.3,2.9-6.7,5.7-6.7c3.1,0,4.9,1.6,5,6.7H215.7z"
			/>
		<path class="st0" d="M31.3,29l-6.2,24.3h-9.6L7.2,20.1c-0.3-0.9-1-1.5-1.9-1.5H4.4v-4.9h16.1v4.9h-4.7l5.6,24.9h0.1l7.4-29.8h6.8
			l7.4,29.8h0.1l5-20.9c0.9-2.5,0.3-4-1.9-4h-2.1v-4.9h14.6v4.9H58c-1,0-1.8,0.7-2.2,1.8l-8.6,32.9h-9.6L31.4,29H31.3z"/>
	</g>
	<g>
		<path class="st1" d="M304.1,19.3c2.9-3.5,7.3-5.7,12.1-5.7h10.9v7.9h-10.9c-2.4,0-4.6,1.1-6.1,2.8l-19.5,23.2
			c-2.9,3.5-7.3,5.7-12.1,5.7h-10.9v-7.9h10.9c2.4,0,4.6-1.1,6.1-2.8L304.1,19.3z"/>
		<rect x="335" y="13.6" class="st1" width="8.3" height="39.6"/>
		<path class="st1" d="M374.3,19.3l6.7,8l6.7-8c2.9-3.5,7.3-5.7,12.1-5.7h10.9v7.9h-10.9c-2.4,0-4.6,1.1-6.1,2.8l-7.6,9l7.6,9.1
			c1.5,1.7,3.6,2.8,6.1,2.8h10.9v7.9h-10.9c-4.9,0-9.2-2.2-12.1-5.7l-6.7-8l-6.7,8c-2.9,3.5-7.3,5.7-12.1,5.7h-10.9v-7.9h10.9
			c2.4,0,4.6-1.1,6.1-2.8l7.6-9.1l-7.6-9c-1.5-1.7-3.6-2.8-6.1-2.8h-10.9v-7.9h10.9C367,13.6,371.4,15.8,374.3,19.3"/>
		<path class="st2" d="M458.7,41.3c0-3.4-1.5-4.4-4.6-4.4h-3.8v16.3h1.9v-7.4h1.3C456.7,45.9,458.7,45.4,458.7,41.3 M456.7,41.3
			c0,2.3-0.9,3-3.1,3h-1.4v-5.9h1.6C455.9,38.4,456.7,39.1,456.7,41.3 M467.6,53.2c-0.1-1.2-0.1-2.4-0.1-3.6v-4.2
			c0-2.6-0.7-3.8-3.4-3.8c-2,0-3.7,0.8-3.7,3v0.1h1.8v-0.1c0-1.1,0.9-1.7,1.9-1.7c1.8,0,1.8,1.5,1.8,2.8v0.5c-2.9,0-5.9,0.2-5.9,3.8
			c0,1.9,0.9,3.4,2.9,3.4c1.4,0,2.3-0.5,3-1.7l0,1.5H467.6z M465.7,48.8c0,1.5-0.5,3.3-2.3,3.3c-1.3,0-1.7-1.1-1.7-2.2
			c0-2.1,1.8-2.4,3.6-2.4h0.5V48.8z M477.9,41.9h-1.8l-2.3,9.1l-2.4-9.1h-1.9l3.4,11.4l-1.3,4.3h1.7L477.9,41.9z M492.7,53.2v-7.7
			c0-2.5-0.6-3.9-2.8-3.9c-1.4,0-2.3,0.8-2.8,1.7c-0.3-0.9-0.8-1.7-2.5-1.7c-1.2,0-2.2,0.8-2.7,1.7v-1.5h-1.8c0.1,0.7,0.1,1.3,0.1,2
			v9.4h1.8v-7c0-1.7,0.6-3.3,2-3.3c1.6,0,1.6,1.4,1.6,2.5v7.7h1.8v-7.2c0-1.3,0.3-3.1,2-3.1c1.5,0,1.6,1.4,1.6,2.6v7.6H492.7z
			 M503.5,47.8v-0.5c0-2.8-0.1-5.7-3.7-5.7c-3.9,0-4,3.3-4,6.4c0,3,0.4,5.5,3.9,5.5c2.8,0,3.7-1.5,3.8-3.8h-1.8
			c0,1.3-0.4,2.5-2.1,2.5c-1.9,0-2.1-1.7-2.1-3.6v-0.8H503.5z M501.7,46.6h-4.2c0-0.5,0-1,0.1-1.5c0.2-1.3,0.7-2.2,2.1-2.2
			c1.4,0,1.8,1.1,1.9,2.2C501.7,45.6,501.7,46.1,501.7,46.6 M514.1,53.2v-8.1c0-2.1-0.7-3.5-3-3.5c-1.4,0-2.5,0.9-3,1.8v-1.6h-1.8
			c0.1,0.8,0.1,1.6,0.1,2.5v8.9h1.8v-6.8c0-1.5,0.6-3.4,2.3-3.4c1.8,0,1.8,1.6,1.8,3v7.3H514.1z M522,53.2v-1.4
			c-0.3,0-0.6,0.1-0.8,0.1c-1,0-1.3-0.3-1.3-1.6v-7.2h2v-1.3h-2V39l-1.8,0.8v2.1h-1.7v1.3h1.7v7.4c0,2,0.4,2.8,2.6,2.8
			C521.1,53.3,521.5,53.3,522,53.2 M538.4,49.2c0-2.9-1.5-3.6-3.4-4.9c-1.7-1.1-3.4-1.6-3.4-3.8c0-1.5,0.9-2.4,2.4-2.4
			c1.9,0,2.4,1,2.4,2.6v0.4h1.9v-0.5c0-2.8-1.5-3.9-4.2-3.9c-2.6,0-4.4,1.4-4.4,4.1c0,2.8,1.8,3.8,4,5.1c1.5,0.9,2.8,1.5,2.8,3.5
			c0,1.6-0.7,2.6-2.5,2.6c-2.1,0-2.6-1.4-2.6-3.2v-0.2h-2v0.2c0,3.2,1.3,4.7,4.6,4.7C536.6,53.5,538.4,52.1,538.4,49.2 M548.5,47.8
			v-0.5c0-2.8-0.1-5.7-3.7-5.7c-3.9,0-4,3.3-4,6.4c0,3,0.4,5.5,3.9,5.5c2.8,0,3.7-1.5,3.8-3.8h-1.8c0,1.3-0.4,2.5-2.1,2.5
			c-1.9,0-2.1-1.7-2.1-3.6v-0.8H548.5z M546.6,46.6h-4.2c0-0.5,0-1,0.1-1.5c0.2-1.3,0.7-2.2,2.1-2.2c1.4,0,1.8,1.1,1.9,2.2
			C546.6,45.6,546.6,46.1,546.6,46.6 M556.1,43.3v-1.7H556c-1.3,0-2.3,0.6-2.9,1.7v-1.5h-1.8c0,0.5,0.1,1.6,0.1,2.1v9.3h1.8v-7
			c0-1.7,0.8-2.9,2.6-2.9C555.9,43.3,556,43.3,556.1,43.3 M565.6,41.9h-1.7l-2.4,9.6l-2.3-9.6h-1.9l3.2,11.4h2L565.6,41.9z
			 M569.8,37.1h-2v1.9h2V37.1z M569.7,41.9h-1.8v11.4h1.8V41.9z M580.2,49.7h-1.8c0,1.3-0.3,2.5-1.8,2.5c-1.6,0-2-1.4-2-4.6
			c0-2.1,0-4.7,2.1-4.7c1.5,0,1.8,1.1,1.8,2.4h1.8c0-2.5-0.8-3.7-3.5-3.7c-3.8,0-3.9,3.1-3.9,6.1c0,3.4,0.4,5.8,3.9,5.8
			C579.5,53.5,580.2,51.7,580.2,49.7 M590.1,47.8v-0.5c0-2.8-0.1-5.7-3.7-5.7c-3.9,0-4,3.3-4,6.4c0,3,0.4,5.5,3.9,5.5
			c2.8,0,3.7-1.5,3.8-3.8h-1.8c0,1.3-0.4,2.5-2.1,2.5c-1.9,0-2.1-1.7-2.1-3.6v-0.8H590.1z M588.3,46.6h-4.2c0-0.5,0-1,0.1-1.5
			c0.2-1.3,0.7-2.2,2.1-2.2c1.4,0,1.8,1.1,1.9,2.2C588.3,45.6,588.3,46.1,588.3,46.6 M599.4,50.1c0-1.9-1.3-2.6-2.7-3.4
			c-1.3-0.7-2.3-1.2-2.3-2.3c0-0.9,0.6-1.6,1.5-1.6c1.1,0,1.4,0.6,1.6,1.4c0,0.2,0,0.5,0,0.7h1.8c0-0.3,0-0.6-0.1-0.9
			c-0.3-1.7-1.3-2.5-3.2-2.5c-1.9,0-3.4,0.9-3.4,3c0,2,1.3,2.5,2.9,3.4c1.3,0.7,2.1,1.1,2.1,2.5c0,1.1-0.6,1.8-1.7,1.8
			c-1.2,0-1.6-0.7-1.7-1.8c0-0.2,0-0.4,0-0.6h-1.8c0,0.3,0,0.6,0,0.8c0.2,1.9,1.3,2.9,3.4,2.9C598,53.5,599.4,52.4,599.4,50.1"/>
	</g>
	<rect x="249.9" y="4.4" class="st2" width="2.1" height="58"/>
	<rect x="4.4" y="4.4" class="st3" width="594.9" height="58"/>
</g>
</svg>
